<?xml version="1.0" encoding="UTF-8"?>
<svg id="Layer_1" xmlns="http://www.w3.org/2000/svg" version="1.1" viewBox="0 0 32 3.23">
  <!-- Generator: Adobe Illustrator 29.5.1, SVG Export Plug-In . SVG Version: 2.1.0 Build 141)  -->
  <defs>
    <style>
      .st0 {
        fill: #00365f;
      }
    </style>
  </defs>
  <g>
    <polygon class="st0" points="0 2.99 .93 2.99 .93 1.61 0 2.21 0 2.99"/>
    <polygon class="st0" points="1.19 2.99 2.12 2.99 2.12 .84 1.19 1.45 1.19 2.99"/>
    <polygon class="st0" points="2.39 .68 2.39 2.99 3.32 2.99 3.32 .68 2.85 .38 2.39 .68"/>
    <polygon class="st0" points="3.58 2.99 4.51 2.99 4.51 1.45 3.58 .84 3.58 2.99"/>
    <polygon class="st0" points="4.77 2.99 5.7 2.99 5.7 2.21 4.77 1.61 4.77 2.99"/>
  </g>
  <g>
    <path class="st0" d="M6.75,2.95V.41h.69c.19,0,.32.05.4.14.08.09.13.24.13.45v.11c0,.12-.02.22-.06.29-.04.07-.11.12-.2.15.11.03.19.1.23.2s.06.24.06.39c0,.16-.02.31-.05.43-.03.12-.09.22-.17.29-.08.07-.2.1-.35.1h-.69ZM7.25,1.37h.1s.08-.02.09-.05c.01-.04.02-.08.02-.13v-.26c0-.08-.04-.12-.11-.12h-.11v.57ZM7.3,2.51c.13,0,.2-.06.2-.19v-.32c0-.07-.01-.13-.03-.17s-.06-.06-.12-.06h-.09v.74s.04,0,.05,0Z"/>
    <path class="st0" d="M8.78,2.98c-.2,0-.36-.06-.47-.18-.11-.12-.16-.3-.16-.53v-1.21c0-.22.05-.38.16-.5.11-.11.26-.17.47-.17s.36.06.47.17.16.28.16.5v1.21c0,.23-.05.41-.16.53s-.26.18-.47.18ZM8.78,2.51c.08,0,.12-.07.12-.22v-1.24c0-.13-.04-.19-.11-.19-.08,0-.13.06-.13.19v1.24c0,.08,0,.14.03.17.02.03.05.05.1.05Z"/>
    <path class="st0" d="M9.61,2.95V.41h.7c.18,0,.32.05.41.15.09.1.14.25.14.45v1.19c0,.24-.04.43-.13.56-.08.13-.23.2-.44.2h-.68ZM10.13,2.5h.09c.09,0,.14-.05.14-.14v-1.31c0-.08-.01-.14-.03-.16s-.07-.04-.14-.04h-.06v1.65Z"/>
    <path class="st0" d="M11.08,2.95V.41h1.02v.49h-.5v.5h.48v.48h-.48v.58h.53v.5h-1.05Z"/>
    <path class="st0" d="M12.82,2.98c-.36,0-.55-.26-.55-.78v-1.1c0-.48.21-.71.63-.71.17,0,.3.03.4.1.09.07.15.17.19.3.03.13.05.29.05.48h-.5v-.23c0-.06,0-.1-.02-.14s-.05-.06-.09-.06c-.06,0-.1.02-.12.06-.02.04-.03.08-.03.13v1.23c0,.07,0,.12.03.17.02.04.05.06.1.06s.09-.02.11-.06c.02-.04.03-.1.03-.17v-.36h-.14v-.44h.62v1.48h-.2l-.09-.21c-.09.16-.23.24-.42.24Z"/>
    <path class="st0" d="M13.66,2.95l.25-2.55h.86l.24,2.55h-.48l-.04-.41h-.31l-.03.41h-.49ZM14.23,2.14h.23l-.11-1.3h-.02l-.1,1.3Z"/>
    <path class="st0" d="M15.17,2.95V.41h.7c.18,0,.32.05.41.15.09.1.14.25.14.45v1.19c0,.24-.04.43-.13.56-.08.13-.23.2-.44.2h-.68ZM15.68,2.5h.09c.09,0,.14-.05.14-.14v-1.31c0-.08-.01-.14-.03-.16-.02-.02-.07-.04-.14-.04h-.06v1.65Z"/>
    <path class="st0" d="M16.63,2.95V.41h1.02v.49h-.5v.5h.48v.48h-.48v.58h.53v.5h-1.05Z"/>
    <path class="st0" d="M17.85,2.95V.41h.78c.13,0,.23.03.3.09.07.06.11.14.13.25.02.11.03.23.03.38s-.02.25-.05.33-.1.14-.2.17c.08.02.14.06.17.12.03.06.05.14.05.25v.96h-.5v-1c0-.07-.02-.12-.05-.14-.03-.02-.08-.03-.15-.03v1.16h-.52ZM18.37,1.35h.12c.07,0,.11-.08.11-.23,0-.1,0-.16-.02-.2-.02-.03-.04-.05-.09-.05h-.12v.47Z"/>
    <path class="st0" d="M19.27,2.95V.41h1.02v.49h-.5v.5h.48v.48h-.48v.58h.53v.5h-1.05Z"/>
    <path class="st0" d="M20.49,2.95V.41h.78l.21,1.55.21-1.55h.78v2.55h-.47v-1.84l-.29,1.84h-.46l-.31-1.84v1.84h-.46Z"/>
    <path class="st0" d="M22.63,2.95l.25-2.55h.86l.24,2.55h-.48l-.04-.41h-.31l-.03.41h-.49ZM23.19,2.14h.23l-.11-1.3h-.02l-.1,1.3Z"/>
    <path class="st0" d="M24.32,2.95V.9h-.3v-.49h1.11v.49h-.3v2.06h-.51Z"/>
    <path class="st0" d="M25.27,2.95V.41h1.02v.49h-.5v.5h.48v.48h-.48v.58h.53v.5h-1.05Z"/>
    <path class="st0" d="M26.46,2.95v-.43h.52v.43h-.52Z"/>
    <path class="st0" d="M27.76,2.98c-.18,0-.33-.06-.45-.17-.11-.11-.17-.28-.17-.48v-1.18c0-.25.05-.44.15-.57s.26-.2.48-.2c.12,0,.23.02.32.07.09.04.17.11.22.2.05.09.08.2.08.33v.44h-.51v-.38c0-.08,0-.13-.03-.15-.02-.03-.05-.04-.09-.04-.05,0-.08.02-.1.05-.02.03-.02.08-.02.14v1.28c0,.07.01.12.03.15.02.03.05.04.09.04.04,0,.07-.02.09-.05s.03-.08.03-.14v-.46h.51v.48c0,.22-.06.39-.17.49-.11.1-.27.15-.47.15Z"/>
    <path class="st0" d="M29.18,2.98c-.2,0-.36-.06-.47-.18-.11-.12-.16-.3-.16-.53v-1.21c0-.22.05-.38.16-.5s.26-.17.47-.17.36.06.47.17.16.28.16.5v1.21c0,.23-.05.41-.16.53s-.26.18-.47.18ZM29.19,2.51c.08,0,.12-.07.12-.22v-1.24c0-.13-.04-.19-.11-.19-.08,0-.13.06-.13.19v1.24c0,.08,0,.14.03.17.02.03.05.05.1.05Z"/>
    <path class="st0" d="M30.01,2.95V.41h.78l.21,1.55.21-1.55h.78v2.55h-.47v-1.84l-.29,1.84h-.46l-.31-1.84v1.84h-.46Z"/>
  </g>
</svg>